<svg width="76.000000" height="76.000000" viewBox="0 0 76 76" fill="none" xmlns="http://www.w3.org/2000/svg" xmlns:xlink="http://www.w3.org/1999/xlink">
	<desc>
			Created with Pixso.
	</desc>
	<defs>
		<clipPath id="clip546_1629">
			<rect id="290108_achievement_award_badge_medal_prize_icon 1" width="36.000000" height="36.000000" transform="translate(20.000000 20.000000)" fill="white" fill-opacity="0"/>
		</clipPath>
	</defs>
	<rect id="Frame 32" rx="20.000000" width="76.000000" height="76.000000" fill="#254152" fill-opacity="1.000000"/>
	<rect id="290108_achievement_award_badge_medal_prize_icon 1" width="36.000000" height="36.000000" transform="translate(20.000000 20.000000)" fill="#FFFFFF" fill-opacity="0"/>
	<g clip-path="url(#clip546_1629)">
		<path id="Vector" d="M47.74 35.36L47.74 38.37L45.12 39.88L43.62 42.49L43.23 42.49C43.23 42.49 43.24 42.49 43.24 42.5L43.24 53.75C43.24 53.75 43.23 53.75 43.23 53.75C43.24 53.94 43.17 54.14 43.02 54.28C42.88 54.43 42.68 54.5 42.49 54.49C42.49 54.49 42.49 54.5 42.49 54.5C42.25 54.5 42.04 54.38 41.9 54.2L37.99 50.28L34.07 54.2C33.93 54.38 33.73 54.5 33.49 54.5C33.48 54.5 33.48 54.49 33.48 54.49C33.29 54.5 33.09 54.43 32.95 54.28C32.8 54.14 32.73 53.94 32.74 53.75C32.74 53.75 32.74 53.75 32.74 53.75L32.74 42.5C32.74 42.49 32.74 42.49 32.74 42.49L32.36 42.49L30.85 39.88L28.23 38.37L28.23 35.36L26.73 32.75L28.23 30.13L28.23 27.12L30.85 25.61L32.36 23L35.37 23L37.98 21.49L40.6 23L43.62 23L45.12 25.61L47.74 27.12L47.74 30.13L49.25 32.75L47.74 35.36ZM34.24 42.5L34.24 51.96L37.38 48.82C37.4 48.78 37.42 48.74 37.45 48.71C37.6 48.56 37.79 48.49 37.99 48.5C38.18 48.49 38.37 48.56 38.52 48.71C38.55 48.74 38.57 48.78 38.59 48.82L41.74 51.96L41.74 42.5C41.74 42.49 41.74 42.49 41.74 42.49L40.6 42.49L37.99 44L35.37 42.49L34.23 42.49C34.23 42.49 34.24 42.49 34.24 42.5ZM46.24 30.53L46.24 27.98L44.02 26.7L42.75 24.5L40.2 24.5L37.99 23.22L35.78 24.5L33.22 24.5L31.95 26.7L29.74 27.98L29.74 30.53L28.46 32.75L29.74 34.96L29.74 37.51L31.95 38.78L33.22 40.99L35.78 40.99L37.99 42.27L40.2 40.99L42.75 40.99L44.02 38.78L46.23 37.51L46.23 34.96L47.51 32.75L46.24 30.53Z" fill="#FFFFFF" fill-opacity="1.000000" fill-rule="evenodd"/>
	</g>
</svg>
