<svg width="76.000000" height="76.000000" viewBox="0 0 76 76" fill="none" xmlns="http://www.w3.org/2000/svg" xmlns:xlink="http://www.w3.org/1999/xlink">
	<desc>
			Created with Pixso.
	</desc>
	<defs>
		<clipPath id="clip546_1636">
			<rect id="290143_cash_money_payment_wallet_icon 1" width="36.000000" height="36.000000" transform="translate(20.000000 20.000000)" fill="white" fill-opacity="0"/>
		</clipPath>
	</defs>
	<rect id="Frame 32" rx="20.000000" width="76.000000" height="76.000000" fill="#254152" fill-opacity="1.000000"/>
	<rect id="290143_cash_money_payment_wallet_icon 1" width="36.000000" height="36.000000" transform="translate(20.000000 20.000000)" fill="#FFFFFF" fill-opacity="0"/>
	<g clip-path="url(#clip546_1636)">
		<path id="Vector" d="M55.25 50C55.25 52.07 53.57 53.75 51.5 53.75L24.5 53.75C22.42 53.75 20.75 52.07 20.75 50L20.75 28.25C20.75 26.59 22.09 25.25 23.75 25.25L38.87 25.25L44.95 23.04C45.33 22.9 45.76 23.1 45.9 23.49L46.54 25.25L49.25 25.25C50.9 25.25 52.25 26.59 52.25 28.25L52.25 29.75C53.9 29.75 55.25 31.09 55.25 32.75L55.25 50ZM23.75 26.75C22.92 26.75 22.25 27.42 22.25 28.25C22.25 29.07 22.92 29.75 23.75 29.75L26.33 29.75L26.47 29.75C26.48 29.74 26.49 29.73 26.5 29.73L34.73 26.75L23.75 26.75ZM45.55 26.88L44.76 24.69L44.76 24.69L43.22 25.25L43.22 25.25L39.08 26.75L39.08 26.75L30.8 29.75L46.59 29.75L45.55 26.88ZM50.75 28.25C50.75 27.42 50.07 26.75 49.25 26.75L47.08 26.75L48.17 29.75L50.75 29.75L50.75 28.25ZM52.25 31.25L23.75 31.25C23.2 31.25 22.69 31.09 22.25 30.83L22.25 50C22.25 51.24 23.25 52.25 24.5 52.25L51.5 52.25C52.74 52.25 53.75 51.24 53.75 50L53.75 44.75L50.75 44.75C49.09 44.75 47.75 43.4 47.75 41.75C47.75 40.09 49.09 38.75 50.75 38.75L53.75 38.75L53.75 32.75C53.75 31.92 53.07 31.25 52.25 31.25ZM53.75 43.25L53.75 40.25L50.75 40.25C49.92 40.25 49.25 40.92 49.25 41.75C49.25 42.57 49.92 43.25 50.75 43.25L53.75 43.25ZM50.75 41L52.25 41L52.25 42.5L50.75 42.5L50.75 41Z" fill="#FFFFFF" fill-opacity="1.000000" fill-rule="evenodd"/>
	</g>
</svg>
