<svg width="76.000000" height="76.000000" viewBox="0 0 76 76" fill="none" xmlns="http://www.w3.org/2000/svg" xmlns:xlink="http://www.w3.org/1999/xlink">
	<desc>
			Created with Pixso.
	</desc>
	<defs>
		<clipPath id="clip546_1622">
			<rect id="290114_clock_time_timer_watch_wrist watch_icon 1" width="36.000000" height="36.000000" transform="translate(20.000000 20.000000)" fill="white" fill-opacity="0"/>
		</clipPath>
	</defs>
	<rect id="Frame 32" rx="20.000000" width="76.000000" height="76.000000" fill="#254152" fill-opacity="1.000000"/>
	<rect id="290114_clock_time_timer_watch_wrist watch_icon 1" width="36.000000" height="36.000000" transform="translate(20.000000 20.000000)" fill="#FFFFFF" fill-opacity="0"/>
	<g clip-path="url(#clip546_1622)">
		<path id="Vector" d="M48.5 39.5C48.46 39.5 48.43 39.49 48.39 39.48C47.98 42.54 46.35 45.21 44 46.98L44 52.25C44 53.9 42.65 55.25 41 55.25L33.5 55.25C31.84 55.25 30.5 53.9 30.5 52.25L30.5 46.98C27.77 44.93 26 41.67 26 38C26 34.32 27.77 31.06 30.5 29.01L30.5 23.75C30.5 22.09 31.84 20.75 33.5 20.75L41 20.75C42.65 20.75 44 22.09 44 23.75L44 29.01C46.35 30.78 47.98 33.45 48.39 36.51C48.43 36.5 48.46 36.5 48.5 36.5C49.32 36.5 50 37.17 50 38C50 38.82 49.32 39.5 48.5 39.5ZM32 52.25C32 53.07 32.67 53.75 33.5 53.75L41 53.75C41.82 53.75 42.5 53.07 42.5 52.25L42.5 47.94C40.93 48.77 39.14 49.25 37.25 49.25C35.35 49.25 33.56 48.77 32 47.94L32 52.25ZM42.5 23.75C42.5 22.92 41.82 22.25 41 22.25L33.5 22.25C32.67 22.25 32 22.92 32 23.75L32 28.05C33.56 27.22 35.35 26.75 37.25 26.75C39.14 26.75 40.93 27.22 42.5 28.05L42.5 23.75ZM37.25 28.25C31.86 28.25 27.5 32.61 27.5 38C27.5 43.38 31.86 47.75 37.25 47.75C42.63 47.75 47 43.38 47 38C47 32.61 42.63 28.25 37.25 28.25ZM38 40.11L38 44.75C38 45.16 37.66 45.5 37.25 45.5C36.83 45.5 36.5 45.16 36.5 44.75L36.5 40.11C35.62 39.8 35 38.97 35 38C35 37.64 35.08 37.31 35.23 37.01L32.96 34.74C32.67 34.46 32.67 33.99 32.96 33.71C33.25 33.42 33.71 33.42 34 33.71L36.26 35.98C36.56 35.83 36.89 35.75 37.25 35.75C38.49 35.75 39.5 36.75 39.5 38C39.5 38.97 38.87 39.8 38 40.11ZM37.25 37.25C36.83 37.25 36.5 37.58 36.5 38C36.5 38.41 36.83 38.75 37.25 38.75C37.66 38.75 38 38.41 38 38C38 37.58 37.66 37.25 37.25 37.25Z" fill="#FFFFFF" fill-opacity="1.000000" fill-rule="evenodd"/>
	</g>
</svg>
