<svg width="76.000000" height="76.000000" viewBox="0 0 76 76" fill="none" xmlns="http://www.w3.org/2000/svg" xmlns:xlink="http://www.w3.org/1999/xlink">
	<desc>
			Created with Pixso.
	</desc>
	<defs>
		<clipPath id="clip546_1643">
			<rect id="290109_award_prize_trophy_win_winner_icon 1" width="36.000000" height="36.000000" transform="translate(20.000000 20.000000)" fill="white" fill-opacity="0"/>
		</clipPath>
	</defs>
	<rect id="Frame 32" rx="20.000000" width="76.000000" height="76.000000" fill="#254152" fill-opacity="1.000000"/>
	<rect id="290109_award_prize_trophy_win_winner_icon 1" width="36.000000" height="36.000000" transform="translate(20.000000 20.000000)" fill="#FFFFFF" fill-opacity="0"/>
	<g clip-path="url(#clip546_1643)">
		<path id="Vector" d="M47 33.5C47 37.69 44.12 41.2 40.25 42.2L40.25 50L44.75 50C45.16 50 45.5 50.33 45.5 50.75C45.5 51.16 45.16 51.5 44.75 51.5L31.25 51.5C30.83 51.5 30.5 51.16 30.5 50.75C30.5 50.33 30.83 50 31.25 50L35.75 50L35.75 42.2C31.87 41.2 29 37.69 29 33.5C26.1 33.5 23.75 31.14 23.75 28.25L23.75 26.75C23.75 26.33 24.08 26 24.5 26L29 26L29 25.25C29 24 27.99 23 26.75 23C26.33 23 26 22.66 26 22.25C26 21.83 26.33 21.5 26.75 21.5L49.25 21.5C49.66 21.5 50 21.83 50 22.25C50 22.66 49.66 23 49.25 23C48 23 47 24 47 25.25L47 26L51.5 26C51.91 26 52.25 26.33 52.25 26.75L52.25 28.25C52.25 31.14 49.89 33.5 47 33.5ZM37.25 50L38.75 50L38.75 42.46C38.5 42.48 38.25 42.5 38 42.5C37.74 42.5 37.49 42.48 37.25 42.46L37.25 50ZM25.25 27.5L25.25 28.25C25.25 30.32 26.92 32 29 32L29 27.5L25.25 27.5ZM29.73 23C30.2 23.62 30.5 24.4 30.5 25.25L30.5 33.5C30.5 37.64 33.85 41 38 41C42.14 41 45.5 37.64 45.5 33.5L45.5 25.25C45.5 24.4 45.79 23.62 46.26 23L29.73 23ZM50.75 27.5L47 27.5L47 32C49.07 32 50.75 30.32 50.75 28.25L50.75 27.5ZM29 53L47 53C47.41 53 47.75 53.33 47.75 53.75C47.75 54.16 47.41 54.5 47 54.5L29 54.5C28.58 54.5 28.25 54.16 28.25 53.75C28.25 53.33 28.58 53 29 53Z" fill="#FFFFFF" fill-opacity="1.000000" fill-rule="evenodd"/>
	</g>
</svg>
